<svg width="25" height="24" viewBox="0 0 25 24" fill="none" xmlns="http://www.w3.org/2000/svg">
<mask id="mask0_105_934" style="mask-type:alpha" maskUnits="userSpaceOnUse" x="0" y="0" width="25" height="24">
<rect x="0.5" width="24" height="24" fill="#D9D9D9"/>
</mask>
<g mask="url(#mask0_105_934)">
<path d="M20 9L19.2841 18.3068C19.1238 20.3908 17.386 22 15.2959 22H10.7041C8.61398 22 6.87621 20.3908 6.71591 18.3068L6 9M22 7C19.4021 5.73398 16.3137 5 13 5C9.68635 5 6.59792 5.73398 4 7M11 5V4C11 2.89543 11.8954 2 13 2C14.1046 2 15 2.89543 15 4V5M11 11V17M15 11V17" stroke="#FF5046" stroke-width="1.5" stroke-linecap="round"/>
</g>
</svg>
