<svg width="25" height="24" viewBox="0 0 25 24" fill="none" xmlns="http://www.w3.org/2000/svg">
<path d="M4 21H22M14.7844 5.31171C14.7844 5.31171 14.7844 6.94634 16.419 8.58096C18.0537 10.2156 19.6883 10.2156 19.6883 10.2156M8.31963 17.9881L11.7523 17.4977C12.2475 17.4269 12.7064 17.1975 13.06 16.8438L21.3229 8.58096C22.2257 7.67818 22.2257 6.21449 21.3229 5.31171L19.6883 3.67708C18.7855 2.77431 17.3218 2.77431 16.419 3.67708L8.15616 11.94C7.80248 12.2936 7.57305 12.7525 7.50231 13.2477L7.01193 16.6804C6.90295 17.4432 7.5568 18.097 8.31963 17.9881Z" stroke="#16151C" stroke-width="1.5" stroke-linecap="round"/>
</svg>
