<svg width="18" height="18" viewBox="0 0 18 18" fill="none" xmlns="http://www.w3.org/2000/svg">
<path fill-rule="evenodd" clip-rule="evenodd" d="M3.33676 2.06368C3.16702 1.89973 2.93968 1.80902 2.7037 1.81107C2.46773 1.81312 2.24199 1.90777 2.07513 2.07464C1.90826 2.24151 1.81361 2.46724 1.81156 2.70321C1.80951 2.93919 1.90022 3.16653 2.06416 3.33628L14.6642 15.9363C14.8339 16.1002 15.0612 16.1909 15.2972 16.1889C15.5332 16.1868 15.7589 16.0922 15.9258 15.9253C16.0927 15.7584 16.1873 15.5327 16.1894 15.2967C16.1914 15.0608 16.1007 14.8334 15.9368 14.6637L14.6111 13.338C16.0128 12.2203 17.0494 10.7099 17.5883 8.99998C16.4417 5.34868 13.0307 2.69998 9.00046 2.69998C7.58965 2.69806 6.19832 3.02924 4.93966 3.66658L3.33766 2.06368H3.33676ZM7.17166 5.89768L8.53426 7.26118C8.83945 7.18013 9.16056 7.18067 9.46547 7.26273C9.77038 7.3448 10.0484 7.50551 10.2717 7.72878C10.4949 7.95206 10.6556 8.23006 10.7377 8.53497C10.8198 8.83988 10.8203 9.161 10.7393 9.46618L12.1019 10.8288C12.5078 10.1412 12.6735 9.33819 12.5731 8.54608C12.4728 7.75398 12.1119 7.01772 11.5473 6.45314C10.9827 5.88855 10.2465 5.52768 9.45436 5.42729C8.66225 5.3269 7.85924 5.49269 7.17166 5.89858V5.89768Z" fill="#637381"/>
<path d="M11.2085 15.0273L8.77491 12.5928C7.89983 12.538 7.07483 12.1657 6.45476 11.5458C5.83469 10.9259 5.46217 10.101 5.40711 9.22593L2.10141 5.92023C1.3411 6.82564 0.767024 7.87225 0.412109 9.00003C1.55871 12.6513 4.97061 15.3 8.99991 15.3C9.76221 15.3 10.502 15.2055 11.2085 15.0273Z" fill="#637381"/>
</svg>
