<svg width="18" height="18" viewBox="0 0 18 18" fill="none" xmlns="http://www.w3.org/2000/svg">
<path d="M9.0002 10.8C9.47758 10.8 9.93542 10.6104 10.273 10.2728C10.6106 9.93524 10.8002 9.4774 10.8002 9.00001C10.8002 8.52262 10.6106 8.06479 10.273 7.72722C9.93542 7.38965 9.47758 7.20001 9.0002 7.20001C8.52281 7.20001 8.06497 7.38965 7.7274 7.72722C7.38984 8.06479 7.2002 8.52262 7.2002 9.00001C7.2002 9.4774 7.38984 9.93524 7.7274 10.2728C8.06497 10.6104 8.52281 10.8 9.0002 10.8Z" fill="#637381"/>
<path fill-rule="evenodd" clip-rule="evenodd" d="M0.412109 9.00001C1.55871 5.34871 4.96971 2.70001 8.99991 2.70001C13.0301 2.70001 16.4411 5.34871 17.5877 9.00001C16.4411 12.6513 13.0301 15.3 8.99991 15.3C4.96971 15.3 1.55871 12.6513 0.412109 9.00001ZM12.5999 9.00001C12.5999 9.95479 12.2206 10.8705 11.5455 11.5456C10.8704 12.2207 9.95469 12.6 8.99991 12.6C8.04513 12.6 7.12945 12.2207 6.45432 11.5456C5.77919 10.8705 5.39991 9.95479 5.39991 9.00001C5.39991 8.04523 5.77919 7.12956 6.45432 6.45443C7.12945 5.7793 8.04513 5.40001 8.99991 5.40001C9.95469 5.40001 10.8704 5.7793 11.5455 6.45443C12.2206 7.12956 12.5999 8.04523 12.5999 9.00001V9.00001Z" fill="#637381"/>
</svg>
